<?xml version="1.0" encoding="UTF-8" standalone="no"?>
<!DOCTYPE svg PUBLIC "-//W3C//DTD SVG 1.1//EN"
 "http://www.w3.org/Graphics/SVG/1.1/DTD/svg11.dtd">
<!-- Generated by graphviz version 2.47.3 (20210619.1520)
 -->
<!-- Title: dependencies Pages: 1 -->
<svg width="2082pt" height="247pt"
 viewBox="0.00 0.00 2082.00 246.80" xmlns="http://www.w3.org/2000/svg" xmlns:xlink="http://www.w3.org/1999/xlink">
<g id="graph0" class="graph" transform="scale(1 1) rotate(0) translate(4 242.8)">
<title>dependencies</title>
<polygon fill="white" stroke="transparent" points="-4,4 -4,-242.8 2078,-242.8 2078,4 -4,4"/>
<text text-anchor="middle" x="1037" y="-8.2" font-family="sans-serif" font-size="14.00">dependencies</text>
<g id="clust1" class="cluster">
<title>cluster_AppModule</title>
<polygon fill="none" stroke="black" stroke-dasharray="1,5" points="8,-32.8 8,-230.8 2066,-230.8 2066,-32.8 8,-32.8"/>
</g>
<g id="clust18" class="cluster">
<title>cluster_AppModule_bootstrap</title>
<polygon fill="none" stroke="black" points="1022,-170.8 1022,-222.8 1146,-222.8 1146,-170.8 1022,-170.8"/>
</g>
<g id="clust16" class="cluster">
<title>cluster_AppModule_imports</title>
<polygon fill="none" stroke="black" points="1914,-40.8 1914,-92.8 2058,-92.8 2058,-40.8 1914,-40.8"/>
</g>
<g id="clust2" class="cluster">
<title>cluster_AppModule_declarations</title>
<polygon fill="none" stroke="black" points="16,-40.8 16,-92.8 1906,-92.8 1906,-40.8 16,-40.8"/>
</g>
<!-- AlertasComponent -->
<g id="node1" class="node">
<title>AlertasComponent</title>
<polygon fill="#ffffb3" stroke="black" points="1897.75,-84.8 1776.25,-84.8 1776.25,-48.8 1897.75,-48.8 1897.75,-84.8"/>
<text text-anchor="middle" x="1837" y="-62.6" font-family="Times,serif" font-size="14.00">AlertasComponent</text>
</g>
<!-- AppModule -->
<g id="node14" class="node">
<title>AppModule</title>
<polygon fill="#8dd3c7" stroke="black" points="1125.66,-149.8 1122.66,-153.8 1101.66,-153.8 1098.66,-149.8 1042.34,-149.8 1042.34,-113.8 1125.66,-113.8 1125.66,-149.8"/>
<text text-anchor="middle" x="1084" y="-127.6" font-family="Times,serif" font-size="14.00">AppModule</text>
</g>
<!-- AlertasComponent&#45;&gt;AppModule -->
<g id="edge1" class="edge">
<title>AlertasComponent&#45;&gt;AppModule</title>
<path fill="none" stroke="black" d="M1837,-84.84C1837,-106.46 1837,-139.8 1837,-139.8 1837,-139.8 1135.83,-139.8 1135.83,-139.8"/>
<polygon fill="black" stroke="black" points="1135.83,-136.3 1125.83,-139.8 1135.83,-143.3 1135.83,-136.3"/>
</g>
<!-- AppComponent -->
<g id="node2" class="node">
<title>AppComponent</title>
<polygon fill="#ffffb3" stroke="black" points="1757.94,-84.8 1652.06,-84.8 1652.06,-48.8 1757.94,-48.8 1757.94,-84.8"/>
<text text-anchor="middle" x="1705" y="-62.6" font-family="Times,serif" font-size="14.00">AppComponent</text>
</g>
<!-- AppComponent&#45;&gt;AppModule -->
<g id="edge2" class="edge">
<title>AppComponent&#45;&gt;AppModule</title>
<path fill="none" stroke="black" d="M1705,-85.02C1705,-105.17 1705,-134.8 1705,-134.8 1705,-134.8 1135.71,-134.8 1135.71,-134.8"/>
<polygon fill="black" stroke="black" points="1135.71,-131.3 1125.71,-134.8 1135.71,-138.3 1135.71,-131.3"/>
</g>
<!-- CadastrarComponent -->
<g id="node3" class="node">
<title>CadastrarComponent</title>
<polygon fill="#ffffb3" stroke="black" points="1634.47,-84.8 1499.53,-84.8 1499.53,-48.8 1634.47,-48.8 1634.47,-84.8"/>
<text text-anchor="middle" x="1567" y="-62.6" font-family="Times,serif" font-size="14.00">CadastrarComponent</text>
</g>
<!-- CadastrarComponent&#45;&gt;AppModule -->
<g id="edge3" class="edge">
<title>CadastrarComponent&#45;&gt;AppModule</title>
<path fill="none" stroke="black" d="M1567,-85.02C1567,-103.63 1567,-129.8 1567,-129.8 1567,-129.8 1136.02,-129.8 1136.02,-129.8"/>
<polygon fill="black" stroke="black" points="1136.02,-126.3 1126.02,-129.8 1136.02,-133.3 1136.02,-126.3"/>
</g>
<!-- EntrarComponent -->
<g id="node4" class="node">
<title>EntrarComponent</title>
<polygon fill="#ffffb3" stroke="black" points="1481.31,-84.8 1364.69,-84.8 1364.69,-48.8 1481.31,-48.8 1481.31,-84.8"/>
<text text-anchor="middle" x="1423" y="-62.6" font-family="Times,serif" font-size="14.00">EntrarComponent</text>
</g>
<!-- EntrarComponent&#45;&gt;AppModule -->
<g id="edge4" class="edge">
<title>EntrarComponent&#45;&gt;AppModule</title>
<path fill="none" stroke="black" d="M1423,-84.83C1423,-101.86 1423,-124.8 1423,-124.8 1423,-124.8 1135.91,-124.8 1135.91,-124.8"/>
<polygon fill="black" stroke="black" points="1135.91,-121.3 1125.91,-124.8 1135.91,-128.3 1135.91,-121.3"/>
</g>
<!-- EventosComponent -->
<g id="node5" class="node">
<title>EventosComponent</title>
<polygon fill="#ffffb3" stroke="black" points="1347.44,-84.8 1220.56,-84.8 1220.56,-48.8 1347.44,-48.8 1347.44,-84.8"/>
<text text-anchor="middle" x="1284" y="-62.6" font-family="Times,serif" font-size="14.00">EventosComponent</text>
</g>
<!-- EventosComponent&#45;&gt;AppModule -->
<g id="edge5" class="edge">
<title>EventosComponent&#45;&gt;AppModule</title>
<path fill="none" stroke="black" d="M1284,-85.04C1284,-100.37 1284,-119.8 1284,-119.8 1284,-119.8 1135.93,-119.8 1135.93,-119.8"/>
<polygon fill="black" stroke="black" points="1135.93,-116.3 1125.93,-119.8 1135.93,-123.3 1135.93,-116.3"/>
</g>
<!-- FeedComponent -->
<g id="node6" class="node">
<title>FeedComponent</title>
<polygon fill="#ffffb3" stroke="black" points="1203.05,-84.8 1094.95,-84.8 1094.95,-48.8 1203.05,-48.8 1203.05,-84.8"/>
<text text-anchor="middle" x="1149" y="-62.6" font-family="Times,serif" font-size="14.00">FeedComponent</text>
</g>
<!-- FeedComponent&#45;&gt;AppModule -->
<g id="edge6" class="edge">
<title>FeedComponent&#45;&gt;AppModule</title>
<path fill="none" stroke="black" d="M1110.28,-84.91C1110.28,-84.91 1110.28,-103.79 1110.28,-103.79"/>
<polygon fill="black" stroke="black" points="1106.78,-103.79 1110.28,-113.79 1113.78,-103.79 1106.78,-103.79"/>
</g>
<!-- InicioComponent -->
<g id="node7" class="node">
<title>InicioComponent</title>
<polygon fill="#ffffb3" stroke="black" points="1076.99,-84.8 963.01,-84.8 963.01,-48.8 1076.99,-48.8 1076.99,-84.8"/>
<text text-anchor="middle" x="1020" y="-62.6" font-family="Times,serif" font-size="14.00">InicioComponent</text>
</g>
<!-- InicioComponent&#45;&gt;AppModule -->
<g id="edge7" class="edge">
<title>InicioComponent&#45;&gt;AppModule</title>
<path fill="none" stroke="black" d="M1059.58,-84.91C1059.58,-84.91 1059.58,-103.79 1059.58,-103.79"/>
<polygon fill="black" stroke="black" points="1056.08,-103.79 1059.58,-113.79 1063.08,-103.79 1056.08,-103.79"/>
</g>
<!-- MenuComponent -->
<g id="node8" class="node">
<title>MenuComponent</title>
<polygon fill="#ffffb3" stroke="black" points="944.99,-84.8 831.01,-84.8 831.01,-48.8 944.99,-48.8 944.99,-84.8"/>
<text text-anchor="middle" x="888" y="-62.6" font-family="Times,serif" font-size="14.00">MenuComponent</text>
</g>
<!-- MenuComponent&#45;&gt;AppModule -->
<g id="edge8" class="edge">
<title>MenuComponent&#45;&gt;AppModule</title>
<path fill="none" stroke="black" d="M888,-85.04C888,-100.37 888,-119.8 888,-119.8 888,-119.8 1031.95,-119.8 1031.95,-119.8"/>
<polygon fill="black" stroke="black" points="1031.95,-123.3 1041.95,-119.8 1031.95,-116.3 1031.95,-123.3"/>
</g>
<!-- PerfilComponent -->
<g id="node9" class="node">
<title>PerfilComponent</title>
<polygon fill="#ffffb3" stroke="black" points="813.43,-84.8 700.57,-84.8 700.57,-48.8 813.43,-48.8 813.43,-84.8"/>
<text text-anchor="middle" x="757" y="-62.6" font-family="Times,serif" font-size="14.00">PerfilComponent</text>
</g>
<!-- PerfilComponent&#45;&gt;AppModule -->
<g id="edge9" class="edge">
<title>PerfilComponent&#45;&gt;AppModule</title>
<path fill="none" stroke="black" d="M757,-84.83C757,-101.86 757,-124.8 757,-124.8 757,-124.8 1032.25,-124.8 1032.25,-124.8"/>
<polygon fill="black" stroke="black" points="1032.25,-128.3 1042.25,-124.8 1032.25,-121.3 1032.25,-128.3"/>
</g>
<!-- PostagemDeleteComponent -->
<g id="node10" class="node">
<title>PostagemDeleteComponent</title>
<polygon fill="#ffffb3" stroke="black" points="683.3,-84.8 510.7,-84.8 510.7,-48.8 683.3,-48.8 683.3,-84.8"/>
<text text-anchor="middle" x="597" y="-62.6" font-family="Times,serif" font-size="14.00">PostagemDeleteComponent</text>
</g>
<!-- PostagemDeleteComponent&#45;&gt;AppModule -->
<g id="edge10" class="edge">
<title>PostagemDeleteComponent&#45;&gt;AppModule</title>
<path fill="none" stroke="black" d="M597,-85.02C597,-103.63 597,-129.8 597,-129.8 597,-129.8 1032.06,-129.8 1032.06,-129.8"/>
<polygon fill="black" stroke="black" points="1032.06,-133.3 1042.06,-129.8 1032.06,-126.3 1032.06,-133.3"/>
</g>
<!-- PostagemEditComponent -->
<g id="node11" class="node">
<title>PostagemEditComponent</title>
<polygon fill="#ffffb3" stroke="black" points="492.6,-84.8 333.4,-84.8 333.4,-48.8 492.6,-48.8 492.6,-84.8"/>
<text text-anchor="middle" x="413" y="-62.6" font-family="Times,serif" font-size="14.00">PostagemEditComponent</text>
</g>
<!-- PostagemEditComponent&#45;&gt;AppModule -->
<g id="edge11" class="edge">
<title>PostagemEditComponent&#45;&gt;AppModule</title>
<path fill="none" stroke="black" d="M413,-85.02C413,-105.17 413,-134.8 413,-134.8 413,-134.8 1032.28,-134.8 1032.28,-134.8"/>
<polygon fill="black" stroke="black" points="1032.28,-138.3 1042.28,-134.8 1032.28,-131.3 1032.28,-138.3"/>
</g>
<!-- RodapeComponent -->
<g id="node12" class="node">
<title>RodapeComponent</title>
<polygon fill="#ffffb3" stroke="black" points="315.1,-84.8 190.9,-84.8 190.9,-48.8 315.1,-48.8 315.1,-84.8"/>
<text text-anchor="middle" x="253" y="-62.6" font-family="Times,serif" font-size="14.00">RodapeComponent</text>
</g>
<!-- RodapeComponent&#45;&gt;AppModule -->
<g id="edge12" class="edge">
<title>RodapeComponent&#45;&gt;AppModule</title>
<path fill="none" stroke="black" d="M253,-84.84C253,-106.46 253,-139.8 253,-139.8 253,-139.8 1032.22,-139.8 1032.22,-139.8"/>
<polygon fill="black" stroke="black" points="1032.22,-143.3 1042.22,-139.8 1032.22,-136.3 1032.22,-143.3"/>
</g>
<!-- UsuarioEditComponent -->
<g id="node13" class="node">
<title>UsuarioEditComponent</title>
<polygon fill="#ffffb3" stroke="black" points="172.48,-84.8 23.52,-84.8 23.52,-48.8 172.48,-48.8 172.48,-84.8"/>
<text text-anchor="middle" x="98" y="-62.6" font-family="Times,serif" font-size="14.00">UsuarioEditComponent</text>
</g>
<!-- UsuarioEditComponent&#45;&gt;AppModule -->
<g id="edge13" class="edge">
<title>UsuarioEditComponent&#45;&gt;AppModule</title>
<path fill="none" stroke="black" d="M98,-84.89C98,-107.93 98,-144.8 98,-144.8 98,-144.8 1032.26,-144.8 1032.26,-144.8"/>
<polygon fill="black" stroke="black" points="1032.26,-148.3 1042.26,-144.8 1032.26,-141.3 1032.26,-148.3"/>
</g>
<!-- AppComponent  -->
<g id="node16" class="node">
<title>AppComponent </title>
<polygon fill="#80b1d3" stroke="black" points="1138.44,-214.8 1029.56,-214.8 1029.56,-178.8 1138.44,-178.8 1138.44,-214.8"/>
<text text-anchor="middle" x="1084" y="-192.6" font-family="Times,serif" font-size="14.00">AppComponent </text>
</g>
<!-- AppModule&#45;&gt;AppComponent  -->
<g id="edge15" class="edge">
<title>AppModule&#45;&gt;AppComponent </title>
<path fill="none" stroke="black" stroke-dasharray="1,5" d="M1084,-149.91C1084,-149.91 1084,-168.79 1084,-168.79"/>
<polygon fill="black" stroke="black" points="1080.5,-168.79 1084,-178.79 1087.5,-168.79 1080.5,-168.79"/>
</g>
<!-- AppRoutingModule -->
<g id="node15" class="node">
<title>AppRoutingModule</title>
<polygon fill="#8dd3c7" stroke="black" points="2050.27,-84.8 2047.27,-88.8 2026.27,-88.8 2023.27,-84.8 1921.73,-84.8 1921.73,-48.8 2050.27,-48.8 2050.27,-84.8"/>
<text text-anchor="middle" x="1986" y="-62.6" font-family="Times,serif" font-size="14.00">AppRoutingModule</text>
</g>
<!-- AppRoutingModule&#45;&gt;AppModule -->
<g id="edge14" class="edge">
<title>AppRoutingModule&#45;&gt;AppModule</title>
<path fill="none" stroke="black" d="M1986,-84.89C1986,-107.93 1986,-144.8 1986,-144.8 1986,-144.8 1135.7,-144.8 1135.7,-144.8"/>
<polygon fill="black" stroke="black" points="1135.7,-141.3 1125.7,-144.8 1135.7,-148.3 1135.7,-141.3"/>
</g>
</g>
</svg>
